PathFileType	4	(X/Y/Z)	pose_F01_0-88.trc
DataRate	CameraRate	NumFrames	NumMarkers	Units	OrigDataRate	OrigDataStartFrame	OrigNumFrames
30	30	11	21	m	30	75	88
Frame#	Time	CHip			RHip			RKnee			RAnkle			RBigToe			RSmallToe			RHeel			LHip			LKnee			LAnkle			LBigToe			LSmallToe			LHeel			Neck			Nose			RShoulder			RElbow			RWrist			LShoulder			LElbow			LWrist			
		X1	Y1	Z1	X2	Y2	Z2	X3	Y3	Z3	X4	Y4	Z4	X5	Y5	Z5	X6	Y6	Z6	X7	Y7	Z7	X8	Y8	Z8	X9	Y9	Z9	X10	Y10	Z10	X11	Y11	Z11	X12	Y12	Z12	X13	Y13	Z13	X14	Y14	Z14	X15	Y15	Z15	X16	Y16	Z16	X17	Y17	Z17	X18	Y18	Z18	X19	Y19	Z19	X20	Y20	Z20	X21	Y21	Z21	
75	2.5	-0.24064308992951267	1.8799622322567784	-0.4274975109687211	-0.253440758862069	1.8772664482316763	-0.37606852652021616	-0.2595590554868672	1.7413389930435803	-0.3461424888986387													-0.2240429267022529	1.8833107151752546	-0.4864026660718174	-0.22116222246389194	1.7469305596747264	-0.46810070142440424	-0.21003881797470597	1.6222528421388722	-0.44974036078458823	-0.20105777961786023	1.5907105646838595	-0.5229834565912803	-0.19597533654380198	1.6026934168329918	-0.5256894667376739	-0.21744821550718163	1.6270908390663936	-0.42046463454583927	-0.23498239976102303	2.0364761655299755	-0.40648145683029724	-0.25029490947311533	2.1062604891096823	-0.45690412182807805	-0.25246648375515945	2.0392615549012176	-0.34388721542331946	-0.2863922021720653	2.063526690046486	-0.41164861378216366	-0.3126812570763964	2.109045208430569	-0.4919424356807466	-0.21873785053747083	2.034209332313653	-0.47033362835536635	-0.20592515477691115	1.967502597575387	-0.5172651502201492	-0.1973075622984117	1.9095461035513561	-0.587640690581516
76	2.533333333333333	-0.2397295093316429	1.8799204413784827	-0.4329480433585005	-0.25282918535559534	1.877239008120574	-0.38175147186612785	-0.2595590554868672	1.7413389930435803	-0.3461424888986387													-0.22408037727212832	1.8832922520592785	-0.48652641351218867	-0.217949789283992	1.7469590501914776	-0.46733424233816495	-0.21003881797470597	1.6222528421388722	-0.44974036078458823	-0.20012841569526965	1.5908767944508495	-0.5198170020050861	-0.19588278044620566	1.6022713858491255	-0.5256189282927692	-0.21744821550718163	1.6270908390663936	-0.42046463454583927	-0.2359373830361424	2.035229940462681	-0.4092700974492473	-0.2503849796513688	2.10387792128212	-0.4565898263178756	-0.25353396340257583	2.0392458158203106	-0.34694593955727043	-0.28740802241025937	2.069055045490662	-0.4236261468348891	-0.3155217566802962	2.111376024255672	-0.49275806308090975	-0.21972847258229616	2.033055615416064	-0.4736849496539741	-0.2067122198099672	1.9666618887446263	-0.520213999887021	-0.19395267655273898	1.9093539375802584	-0.5950692705542852
77	2.566666666666667	-0.23991567248641607	1.878471996920763	-0.4328066843349514	-0.2548738598332102	1.8757662144321208	-0.3795216546561066	-0.2595590554868672	1.7413389930435803	-0.3461424888986387													-0.2243430772066276	1.8806880969517157	-0.4862803507913694	-0.2190003195381873	1.7448075057700525	-0.47038610127086056	-0.21003881797470597	1.6222528421388722	-0.44974036078458823	-0.20303277652581322	1.5903064762884447	-0.52082852209961	-0.19596831587394756	1.6025392583430673	-0.5256221148329058	-0.21744821550718163	1.6270908390663936	-0.42046463454583927	-0.23516221512375446	2.0329973483425303	-0.4140891475570732	-0.2503938402063494	2.1038585140279156	-0.45665563703234385	-0.25291840522190095	2.038272272282431	-0.3523263623894507	-0.2919117045096131	2.0620132467621524	-0.42758922820809453	-0.3158428235325744	2.10840271324475	-0.501358298966603	-0.2177325795589666	2.0321642589704862	-0.4752837903014391	-0.20748068889340168	1.9680243353158624	-0.5233942543788767	-0.19260324461049763	1.9121134810756004	-0.6009527244534554
78	2.6	-0.24088206290973208	1.8781328588205266	-0.43604792712387197	-0.25580713399469507	1.874135145785837	-0.38255616581139246	-0.2595590554868672	1.7413389930435803	-0.3461424888986387													-0.22512769826305767	1.8816965229109337	-0.48961429012464935	-0.21754136114093092	1.7440355084600307	-0.47621244985488165	-0.21003881797470597	1.6222528421388722	-0.44974036078458823	-0.2010061400934721	1.5907192762746865	-0.5231253478888808	-0.1959270663925353	1.6026996642928344	-0.5256837211924248	-0.21744821550718163	1.6270908390663936	-0.42046463454583927	-0.23612750285696027	2.035598029562128	-0.41778877598934244	-0.24941156759317332	2.1050970311898753	-0.461623481436104	-0.25489251419703507	2.0408188987537117	-0.3586266061383062	-0.29422644035228074	2.0585233676628594	-0.4336135668614949	-0.3176086855288789	2.101607944494419	-0.5126398508721607	-0.21673870277690777	2.032339914734848	-0.48055836686391035	-0.20725387656163205	1.9660162314982574	-0.5312755022486606	-0.1951032457450482	1.9108445422505738	-0.6100683543925866
79	2.6333333333333333	-0.23734764528831886	1.8803031290373482	-0.4410186579362918	-0.25328118080424583	1.877683173936452	-0.39083917077395364	-0.2595590554868672	1.7413389930435803	-0.3461424888986387													-0.22339621485301178	1.882015369194557	-0.4919768812592041	-0.21447948336244854	1.7412658173513043	-0.48375334987536034	-0.21003881797470597	1.6222528421388722	-0.44974036078458823	-0.1998719434441259	1.5898770727434497	-0.5198738380216169	-0.1957487500117855	1.6019185863004768	-0.5256125211919828	-0.21744821550718163	1.6270908390663936	-0.42046463454583927	-0.23626485878589729	2.03612281607372	-0.4263067359529506	-0.24663526144173223	2.102470829373482	-0.46788506738931207	-0.25609323778940424	2.0426457780690495	-0.37033475434409674	-0.29289593613649	2.0552202398486945	-0.4278113300708298	-0.3218570630234676	2.0860663088168097	-0.5043164587114592	-0.2168199012852415	2.0322236725189655	-0.48070169599773566	-0.20645631074208096	1.9645041931195841	-0.5280196383890808	-0.19325799601409493	1.9111075089693523	-0.6124602741540293
80	2.6666666666666665	-0.23511200394568685	1.876538347201639	-0.44244042102110126	-0.25214757850896424	1.8742083448986626	-0.3954866108154867	-0.2595590554868672	1.7413389930435803	-0.3461424888986387													-0.22133605691766678	1.878304613482717	-0.4934899421626477	-0.21315066904573854	1.7418722884970113	-0.49451963929972853	-0.21003881797470597	1.6222528421388722	-0.44974036078458823	-0.19877188489695868	1.5898833794071598	-0.5253563442599898	-0.19550308787487153	1.600441753230704	-0.5259687442382169	-0.21744821550718163	1.6270908390663936	-0.42046463454583927	-0.2373494943111046	2.0401238005720894	-0.4312647300881139	-0.24760225087522633	2.10715408289122	-0.48872340327006547	-0.258355790695886	2.0425608897335312	-0.37690393832017527	-0.29699444504804295	2.00856700369037	-0.4005424754482501	-0.3271681655405927	1.991941811282616	-0.47211577104854674	-0.214144743816402	2.0377571877049	-0.482435733573721	-0.20552974049966585	1.9634911298232174	-0.5247660114436905	-0.1906319410013965	1.9077138859992713	-0.602412327608722
81	2.7	-0.23585707998716132	1.871878647232836	-0.4448157432791138	-0.253341441728564	1.870274677081562	-0.4070092934922324	-0.2595590554868672	1.7413389930435803	-0.3461424888986387													-0.21993607299328366	1.875917875921734	-0.48982514689373907	-0.2101300191083604	1.7356826293886525	-0.514732451137252	-0.21003881797470597	1.6222528421388722	-0.44974036078458823	-0.19923310685226067	1.589949842074415	-0.5248519617925388	-0.19392818958866545	1.6005737517367724	-0.5276502302847463	-0.21744821550718163	1.6270908390663936	-0.42046463454583927	-0.236392514900912	2.0338140892492023	-0.43461554687974474	-0.24364109628206448	2.107662708105475	-0.5015282925050802	-0.26290707939267	2.037718141500886	-0.39658042455659676	-0.30109295395959595	1.9619137675320455	-0.37327362082567045	-0.33247926805771777	1.8978173137484222	-0.4399150833856343	-0.21307811840737503	2.033213247223229	-0.4863440796247601	-0.20198159434290447	1.9602055149764968	-0.5199744771562247	-0.1892154777344586	1.9001099964105976	-0.5944772879586453
82	2.7333333333333334	-0.23496922170702328	1.8638410255449458	-0.4486742838405277	-0.2541949170714921	1.8594152286920311	-0.40862717921839303	-0.2595590554868672	1.7413389930435803	-0.3461424888986387													-0.22092239370962846	1.8689131215424026	-0.4916863457801432	-0.20994633043335684	1.7309712183875376	-0.5320737577808684	-0.21003881797470597	1.6222528421388722	-0.44974036078458823	-0.19756093803041017	1.5921248782058843	-0.5269412375170199	-0.19214718699167643	1.6016945429959517	-0.5298779289653673	-0.21744821550718163	1.6270908390663936	-0.42046463454583927	-0.23866436142363168	2.0283737753148476	-0.44808066639455896	-0.23986589304147557	2.098689774202816	-0.519965079887303	-0.26221367160083514	2.0291909653083247	-0.39984526211904947	-0.28417554603613165	1.9498053384069869	-0.37477418842101595	-0.3180055001734593	1.8925446404960176	-0.410781544787548	-0.21489868333045953	2.0298767151612678	-0.49178300544374975	-0.20179588758533218	1.954002114135721	-0.5179644749009922	-0.18683086282746747	1.8909819599047581	-0.5745047442284801
83	2.7666666666666666	-0.2350824101707093	1.8587912243194455	-0.4690151045770996	-0.25386777614312506	1.8695915318797782	-0.4259568906589428	-0.2595590554868672	1.7413389930435803	-0.3461424888986387													-0.2176180476458151	1.865618634035719	-0.5193458488966428	-0.21099541354478318	1.7280144304088998	-0.5350301466724899	-0.21003881797470597	1.6222528421388722	-0.44974036078458823	-0.1972975099231862	1.5906562255531016	-0.5269136951101432	-0.19205143806506106	1.601853190449238	-0.5296617244372644	-0.21744821550718163	1.6270908390663936	-0.42046463454583927	-0.2405304222978735	2.030030490997439	-0.45441898351631127	-0.24284840446195818	2.09899277027249	-0.5299308756933261	-0.2633230950929839	2.0279838431478248	-0.40273331278749536	-0.2833840048887334	1.9405442899164935	-0.3943267314628629	-0.3035317322892009	1.8872719672436127	-0.3816480061894617	-0.2159120418888988	2.03166472596913	-0.5039679399586028	-0.2016101808277599	1.947798713294945	-0.5159544726457597	-0.18444624792047634	1.8818539233989187	-0.5545322004983149
84	2.8	-0.23731843384516182	1.884843471804403	-0.4878353656017481	-0.253540635214758	1.8797678350675255	-0.44328660209949255	-0.2595590554868672	1.7413389930435803	-0.3461424888986387													-0.21669459703084748	1.8902347071216092	-0.5371312055550084	-0.21043275035640518	1.7500363179906915	-0.5379842756315659	-0.21003881797470597	1.6222528421388722	-0.44974036078458823	-0.19821210101416387	1.593757564850954	-0.5395263865866604	-0.192470795153785	1.6059399996523824	-0.5447926957148834	-0.21744821550718163	1.6270908390663936	-0.42046463454583927	-0.24035109894802806	2.0440500427530077	-0.46574847572807854	-0.24446729578530035	2.11007683281221	-0.529364142586185	-0.2637424490697486	2.0403613429739806	-0.3997395600513833	-0.2777546457806335	1.9557897213097168	-0.37303456079163433	-0.2890579644049424	1.881999293991208	-0.35251446759137545	-0.21708739952040043	2.0494776066212292	-0.5299852743325184	-0.2014244740701876	1.9415953124541692	-0.5139444703905272	-0.1820616330134852	1.8727258868930792	-0.5345596567681496
85	2.8333333333333335	-0.23862420008619972	1.9012252625330426	-0.48544546233968205	-0.25329816949952294	1.8968159812583496	-0.4372956734823726	-0.2595590554868672	1.7413389930435803	-0.3461424888986387													-0.2171294985174017	1.9074760423270334	-0.540394375929502	-0.21302927585097303	1.7630846453098854	-0.5543727666032692	-0.20120551740353018	1.6331122759275123	-0.4911773700065189	-0.19912669210514153	1.5968589041488064	-0.5521390780631775	-0.19289015224250897	1.6100268088555272	-0.5599236669925024	-0.20714017092096873	1.6291215562015062	-0.4619312111082347	-0.23995873843958368	2.061539305485718	-0.46917374218160046	-0.24291847923191934	2.132649075638857	-0.5385294115112297	-0.2633936853166592	2.0593240194806466	-0.40377787873820215	-0.27537782181873244	1.970218230943744	-0.36949438405881657	-0.2843932485675958	1.890805007785188	-0.33240557762691747	-0.21747644936732946	2.066239459540259	-0.5439552728562271	-0.2012387673126153	1.9353919116133933	-0.5119344681352946	-0.17967701810649409	1.8635978503872397	-0.5145871130379844
